<svg xmlns="http://www.w3.org/2000/svg" viewBox="0 0 25.36 25.31"><title>Recurso 1</title><g id="Capa_2" data-name="Capa 2"><g id="Capa_1-2" data-name="Capa 1"><path d="M15.38,6.94H12.19L11.63,8.4H8.75L12.42,0H15.2l3.67,8.4H16Zm-.78-2-.81-2.12L13,4.9Z"/><path d="M10.19,16.76l0-3.83L8.35,16H7.1L5.27,13.06v3.7H2.69V8.36H5l2.74,4.47,2.66-4.47h2.33l0,8.4Z"/><path d="M14.56,16.38a4.17,4.17,0,0,1-1.69-1.56,4.23,4.23,0,0,1-.61-2.26,4.19,4.19,0,0,1,2.3-3.83,5.49,5.49,0,0,1,4.87,0,4.27,4.27,0,0,1,1.7,1.56,4.51,4.51,0,0,1,0,4.53,4.2,4.2,0,0,1-1.7,1.56,5.49,5.49,0,0,1-4.87,0Zm3.39-2a1.92,1.92,0,0,0,.68-.73,2.33,2.33,0,0,0,.25-1.11,2.28,2.28,0,0,0-.25-1.11,2,2,0,0,0-.68-.74,1.8,1.8,0,0,0-.95-.25,1.74,1.74,0,0,0-1.63,1,2.28,2.28,0,0,0-.26,1.11,2.33,2.33,0,0,0,.26,1.11,1.82,1.82,0,0,0,.67.73,1.87,1.87,0,0,0,1,.26A1.81,1.81,0,0,0,18,14.4Z"/><path d="M2.28,24.75A4.12,4.12,0,0,1,.61,23.19a4.55,4.55,0,0,1,0-4.55,4.12,4.12,0,0,1,1.67-1.56,5.12,5.12,0,0,1,2.4-.56A5.37,5.37,0,0,1,6.86,17,4.16,4.16,0,0,1,8.45,18.2L6.66,19.8a2.29,2.29,0,0,0-1.84-1,1.86,1.86,0,0,0-1.42.57,2.13,2.13,0,0,0-.54,1.53,2.13,2.13,0,0,0,.54,1.53A1.86,1.86,0,0,0,4.82,23a2.28,2.28,0,0,0,1.84-1l1.79,1.6a4,4,0,0,1-1.59,1.24,5.21,5.21,0,0,1-2.18.44A5.12,5.12,0,0,1,2.28,24.75Z"/><path d="M15.94,21.53a2,2,0,0,1,.4,1.27,1.94,1.94,0,0,1-.91,1.71,4.82,4.82,0,0,1-2.64.6H8.06v-8.4h4.49a4.43,4.43,0,0,1,2.54.6,1.88,1.88,0,0,1,.86,1.6,2,2,0,0,1-.3,1.06,2,2,0,0,1-.87.75A2.56,2.56,0,0,1,15.94,21.53Zm-5.09-2.84v1.25h1.32c.61,0,.92-.21.92-.62s-.31-.63-.92-.63Zm2.64,3.78c0-.44-.31-.66-.94-.66h-1.7v1.32h1.7C13.18,23.13,13.49,22.91,13.49,22.47Z"/><path d="M21.86,23.65H18.67l-.56,1.46H15.23l3.67-8.4h2.78l3.68,8.4H22.43Zm-.78-2-.81-2.11-.82,2.11Z"/></g></g></svg>