<svg xmlns="http://www.w3.org/2000/svg" viewBox="0 0 160.71 160.71"><title>Recurso 1</title><g id="Capa_2" data-name="Capa 2"><g id="Capa_1-2" data-name="Capa 1"><path d="M118.07,0H42.64A42.64,42.64,0,0,0,0,42.64v75.43a42.64,42.64,0,0,0,42.64,42.64h75.43a42.64,42.64,0,0,0,42.64-42.64V42.64A42.64,42.64,0,0,0,118.07,0ZM73.55,92.75a18.74,18.74,0,0,1-1.32,7.08,16.71,16.71,0,0,1-9.33,9.4,18.7,18.7,0,0,1-7.13,1.34H9.24V97.88H55.77a4.87,4.87,0,0,0,3.66-1.35,5.15,5.15,0,0,0,1.32-3.78V40.55h12.8Zm78.85,17.82H94.49a6.46,6.46,0,0,1-2.54-.49,6.1,6.1,0,0,1-2-1.34,6.22,6.22,0,0,1-1.35-2,6.6,6.6,0,0,1-.48-2.54V40.55h12.69V97.88H152.4Z"/></g></g></svg>